<svg viewBox="0 0 330 200" xmlns="http://www.w3.org/2000/svg"><g><g><g><g><g><line x1="51.5625" y1="177" x2="46.5625" y2="177" style="visibility: inherit;" fill="rgb(0, 0, 0)" stroke="rgb(204, 204, 204)" stroke-width="1px"></line><line x1="51.5625" y1="157.33333333333331" x2="46.5625" y2="157.33333333333331" style="visibility: inherit;" fill="rgb(0, 0, 0)" stroke="rgb(204, 204, 204)" stroke-width="1px"></line><line x1="51.5625" y1="137.66666666666666" x2="46.5625" y2="137.66666666666666" style="visibility: inherit;" fill="rgb(0, 0, 0)" stroke="rgb(204, 204, 204)" stroke-width="1px"></line><line x1="51.5625" y1="118.00000000000001" x2="46.5625" y2="118.00000000000001" style="visibility: inherit;" fill="rgb(0, 0, 0)" stroke="rgb(204, 204, 204)" stroke-width="1px"></line><line x1="51.5625" y1="98.33333333333334" x2="46.5625" y2="98.33333333333334" style="visibility: inherit;" fill="rgb(0, 0, 0)" stroke="rgb(204, 204, 204)" stroke-width="1px"></line><line x1="51.5625" y1="78.66666666666669" x2="46.5625" y2="78.66666666666669" style="visibility: inherit;" fill="rgb(0, 0, 0)" stroke="rgb(204, 204, 204)" stroke-width="1px"></line><line x1="51.5625" y1="59.00000000000001" x2="46.5625" y2="59.00000000000001" style="visibility: inherit;" fill="rgb(0, 0, 0)" stroke="rgb(204, 204, 204)" stroke-width="1px"></line><line x1="51.5625" y1="39.33333333333335" x2="46.5625" y2="39.33333333333335" style="visibility: inherit;" fill="rgb(0, 0, 0)" stroke="rgb(204, 204, 204)" stroke-width="1px"></line><line x1="51.5625" y1="19.666666666666675" x2="46.5625" y2="19.666666666666675" style="visibility: inherit;" fill="rgb(0, 0, 0)" stroke="rgb(204, 204, 204)" stroke-width="1px"></line><line x1="51.5625" y1="0" x2="46.5625" y2="0" style="visibility: inherit;" fill="rgb(0, 0, 0)" stroke="rgb(204, 204, 204)" stroke-width="1px"></line></g><g transform="translate(41.5625, 0)"><text x="0" y="177" dx="0em" dy="0.3em" style="text-anchor: end; visibility: hidden; font-family: Roboto, sans-serif; font-size: 12px; font-weight: 200;" fill="rgb(255, 255, 255)" stroke="none" stroke-width="1px">1e-3</text><text x="0" y="157.33333333333331" dx="0em" dy="0.3em" style="text-anchor: end; visibility: inherit; font-family: Roboto, sans-serif; font-size: 12px; font-weight: 200;" fill="rgb(255, 255, 255)" stroke="none" stroke-width="1px">2e-3</text><text x="0" y="137.66666666666666" dx="0em" dy="0.3em" style="text-anchor: end; visibility: hidden; font-family: Roboto, sans-serif; font-size: 12px; font-weight: 200;" fill="rgb(255, 255, 255)" stroke="none" stroke-width="1px">3e-3</text><text x="0" y="118.00000000000001" dx="0em" dy="0.3em" style="text-anchor: end; visibility: inherit; font-family: Roboto, sans-serif; font-size: 12px; font-weight: 200;" fill="rgb(255, 255, 255)" stroke="none" stroke-width="1px">4e-3</text><text x="0" y="98.33333333333334" dx="0em" dy="0.3em" style="text-anchor: end; visibility: hidden; font-family: Roboto, sans-serif; font-size: 12px; font-weight: 200;" fill="rgb(255, 255, 255)" stroke="none" stroke-width="1px">5e-3</text><text x="0" y="78.66666666666669" dx="0em" dy="0.3em" style="text-anchor: end; visibility: inherit; font-family: Roboto, sans-serif; font-size: 12px; font-weight: 200;" fill="rgb(255, 255, 255)" stroke="none" stroke-width="1px">6e-3</text><text x="0" y="59.00000000000001" dx="0em" dy="0.3em" style="text-anchor: end; visibility: hidden; font-family: Roboto, sans-serif; font-size: 12px; font-weight: 200;" fill="rgb(255, 255, 255)" stroke="none" stroke-width="1px">7e-3</text><text x="0" y="39.33333333333335" dx="0em" dy="0.3em" style="text-anchor: end; visibility: inherit; font-family: Roboto, sans-serif; font-size: 12px; font-weight: 200;" fill="rgb(255, 255, 255)" stroke="none" stroke-width="1px">8e-3</text><text x="0" y="19.666666666666675" dx="0em" dy="0.3em" style="text-anchor: end; visibility: hidden; font-family: Roboto, sans-serif; font-size: 12px; font-weight: 200;" fill="rgb(255, 255, 255)" stroke="none" stroke-width="1px">9e-3</text><text x="0" y="0" dx="0em" dy="0.3em" style="text-anchor: end; visibility: hidden; font-family: Roboto, sans-serif; font-size: 12px; font-weight: 200;" fill="rgb(255, 255, 255)" stroke="none" stroke-width="1px">0.01</text></g><line x1="51.5625" y1="0" x2="51.5625" y2="177" fill="rgb(0, 0, 0)" stroke="rgb(204, 204, 204)" stroke-width="1px"></line></g></g><g transform="translate(51, 0)" clip-path="url(#clip_0)"><clipPath id="clip_0"><rect width="278" height="177"></rect></clipPath><g><g><g><line x1="0" y1="0" x2="0" y2="177" fill="rgb(0, 0, 0)" stroke="rgb(189, 189, 189)" stroke-width="1px" opacity="0.25"></line><line x1="23.203125" y1="0" x2="23.203125" y2="177" fill="rgb(0, 0, 0)" stroke="rgb(189, 189, 189)" stroke-width="1px" opacity="0.25"></line><line x1="46.40625" y1="0" x2="46.40625" y2="177" fill="rgb(0, 0, 0)" stroke="rgb(189, 189, 189)" stroke-width="1px" opacity="0.25"></line><line x1="69.609375" y1="0" x2="69.609375" y2="177" fill="rgb(0, 0, 0)" stroke="rgb(189, 189, 189)" stroke-width="1px" opacity="0.25"></line><line x1="92.8125" y1="0" x2="92.8125" y2="177" fill="rgb(0, 0, 0)" stroke="rgb(189, 189, 189)" stroke-width="1px" opacity="0.25"></line><line x1="116.015625" y1="0" x2="116.015625" y2="177" fill="rgb(0, 0, 0)" stroke="rgb(189, 189, 189)" stroke-width="1px" opacity="0.25"></line><line x1="139.21875" y1="0" x2="139.21875" y2="177" fill="rgb(0, 0, 0)" stroke="rgb(189, 189, 189)" stroke-width="1px" opacity="0.25"></line><line x1="162.421875" y1="0" x2="162.421875" y2="177" fill="rgb(0, 0, 0)" stroke="rgb(189, 189, 189)" stroke-width="1px" opacity="0.25"></line><line x1="185.625" y1="0" x2="185.625" y2="177" fill="rgb(0, 0, 0)" stroke="rgb(189, 189, 189)" stroke-width="1px" opacity="0.25"></line><line x1="208.828125" y1="0" x2="208.828125" y2="177" fill="rgb(0, 0, 0)" stroke="rgb(189, 189, 189)" stroke-width="1px" opacity="0.25"></line><line x1="232.03125" y1="0" x2="232.03125" y2="177" fill="rgb(0, 0, 0)" stroke="rgb(189, 189, 189)" stroke-width="1px" opacity="0.25"></line><line x1="255.234375" y1="0" x2="255.234375" y2="177" fill="rgb(0, 0, 0)" stroke="rgb(189, 189, 189)" stroke-width="1px" opacity="0.25"></line><line x1="278.4375" y1="0" x2="278.4375" y2="177" fill="rgb(0, 0, 0)" stroke="rgb(189, 189, 189)" stroke-width="1px" opacity="0.25"></line></g><g><line x1="0" y1="177" x2="278.4375" y2="177" fill="rgb(0, 0, 0)" stroke="rgb(189, 189, 189)" stroke-width="1px" opacity="0.25"></line><line x1="0" y1="157.33333333333331" x2="278.4375" y2="157.33333333333331" fill="rgb(0, 0, 0)" stroke="rgb(189, 189, 189)" stroke-width="1px" opacity="0.25"></line><line x1="0" y1="137.66666666666666" x2="278.4375" y2="137.66666666666666" fill="rgb(0, 0, 0)" stroke="rgb(189, 189, 189)" stroke-width="1px" opacity="0.25"></line><line x1="0" y1="118.00000000000001" x2="278.4375" y2="118.00000000000001" fill="rgb(0, 0, 0)" stroke="rgb(189, 189, 189)" stroke-width="1px" opacity="0.25"></line><line x1="0" y1="98.33333333333334" x2="278.4375" y2="98.33333333333334" fill="rgb(0, 0, 0)" stroke="rgb(189, 189, 189)" stroke-width="1px" opacity="0.25"></line><line x1="0" y1="78.66666666666669" x2="278.4375" y2="78.66666666666669" fill="rgb(0, 0, 0)" stroke="rgb(189, 189, 189)" stroke-width="1px" opacity="0.25"></line><line x1="0" y1="59.00000000000001" x2="278.4375" y2="59.00000000000001" fill="rgb(0, 0, 0)" stroke="rgb(189, 189, 189)" stroke-width="1px" opacity="0.25"></line><line x1="0" y1="39.33333333333335" x2="278.4375" y2="39.33333333333335" fill="rgb(0, 0, 0)" stroke="rgb(189, 189, 189)" stroke-width="1px" opacity="0.25"></line><line x1="0" y1="19.666666666666675" x2="278.4375" y2="19.666666666666675" fill="rgb(0, 0, 0)" stroke="rgb(189, 189, 189)" stroke-width="1px" opacity="0.25"></line><line x1="0" y1="0" x2="278.4375" y2="0" fill="rgb(0, 0, 0)" stroke="rgb(189, 189, 189)" stroke-width="1px" opacity="0.25"></line></g></g></g><g><g><line x1="0" y1="196.66666666666669" x2="278.4375" y2="196.66666666666669" fill="rgb(0, 0, 0)" stroke="rgb(153, 153, 153)" stroke-width="1.5px"></line></g></g><g><g><line x1="23.203125" y1="0" x2="23.203125" y2="177" fill="rgb(0, 0, 0)" stroke="rgb(153, 153, 153)" stroke-width="1.5px"></line></g></g><g><g><g><g><g><path stroke="rgb(255, 112, 67)" stroke-width="2px" d="M23.203125,176.8033331912011L25.523437499999996,164.27075745615485L27.84375,150.21969589658184L30.1640625,134.84549000787356L32.484375,118.37844531367212L34.8046875,101.05695450525874L37.125,83.10640588083396L39.4453125,64.7260801910129L41.765625,46.083637738401016L44.0859375,28.795070045892622L46.40625,18.489076948527078L48.7265625,12.620757311082533L51.04687499999999,9.428570864007291L53.36718750000001,7.865614286612432L55.6875,7.307094087453978L58.0078125,7.379048818365408L60.328125,7.857170317781776L62.6484375,8.606598258260723L64.96875,9.545998951926933L67.2890625,10.626118462784216L69.609375,11.816894848317832L71.92968750000001,13.099755864080675L74.25,14.46298568913285L76.5703125,15.898982411867783L78.890625,17.40256874148174L81.2109375,18.97000040291911L83.53125,20.5983784464587L85.8515625,22.285281929219003L88.171875,24.028554811365744L90.4921875,25.82619271935949L92.8125,27.6762383536472L95.1328125,29.576770006238025L97.453125,31.525836052358375L99.7734375,33.5214815782239L102.09374999999999,35.561720396190466L104.4140625,37.64451825190698L106.73437500000001,39.76781205300709L109.0546875,41.929499426350326L111.375,44.12744710470094L113.6953125,46.359481305631554L116.015625,48.623403937895475L118.3359375,50.91697301951915L120.65625,53.237931223811515L122.9765625,55.58398271170281L125.296875,57.95281586314241L127.6171875,60.342091273506476L129.9375,62.74944920424092L132.2578125,65.17251771644314L134.578125,67.60890289819878L136.8984375,70.0562013169922L139.21875,72.51199650154497L141.5390625,74.97386415732217L143.85937500000003,77.43937529583594L146.1796875,79.90610177542919L148.5,82.37160130973508L150.8203125,84.83344510477386L153.140625,87.289205135594L155.4609375,89.73645383866076L157.78125,92.17277858009821L160.1015625,94.59577568382565L162.421875,97.00305051164166L164.7421875,99.39223216408298L167.0625,101.76096032172725L169.38281249999997,104.10689566598509L171.703125,106.42772613157535L174.0234375,108.72115600520199L176.34375,110.98492869037683L178.66406250000003,113.21680739749448L180.984375,115.4145892002919L183.3046875,117.57610248011778L185.625,119.69921821370183L187.9453125,121.78184026140646L190.265625,123.82191236138547L192.5859375,125.81742232607925L194.90625,127.76640089690959L197.2265625,129.66692288869783L199.546875,131.51711337111888L201.8671875,133.31514771437148L204.18749999999997,135.05924978497922L206.5078125,136.74770002127667L208.828125,138.37883112069554L211.1484375,139.95103277854076L213.46875000000003,141.46275453125608L215.7890625,142.91250563078228L218.109375,144.29885313757123L220.4296875,145.62042810279843L222.75,146.87592927769055L225.0703125,148.06411618111667L227.390625,149.18381592974944L229.7109375,150.23392367295952L232.03125,151.21340285375237L234.3515625,152.12128719693138L236.671875,152.95668007039453L238.99218749999997,153.71875776511484L241.3125,154.4067696315272L243.6328125,155.0200344981585L245.953125,155.55794768081114L248.27343750000003,156.01997786166868L250.59375,156.40567071156266L252.9140625,156.71464373692808" style="fill: none;" fill="none"></path></g></g></g></g><g opacity="0.2"><g><g><g><path stroke="rgb(255, 112, 67)" stroke-width="2px" d="M23.203125,176.8033331912011L25.523437499999996,156.75121201512715L27.84375,136.73067679939172L30.1640625,116.76542388275267L32.484375,96.87907176092267L34.8046875,77.09509698053202L37.125,57.436834139128536L39.4453125,37.92738888412716L41.765625,18.589656228820523L44.0859375,3.123561901350853L46.40625,3.123561901350853L48.7265625,3.850212991237686L51.04687499999999,4.650714236001209L53.36718750000001,5.524241415162924L55.6875,6.469970308244261L58.0078125,7.486930166681638L60.328125,8.574150241911457L62.6484375,9.730549889306262L64.96875,10.954956884185501L67.2890625,12.246199001868604L69.609375,13.602994121611157L71.92968750000001,15.024005174636887L74.25,16.50780351211632L76.5703125,18.052960485219995L78.890625,19.657937549054648L81.2109375,21.32114121069514L83.53125,23.040941345195016L85.8515625,24.81563456356527L88.171875,26.64346252878508L90.4921875,28.52264858782293L92.8125,30.451306191583498L95.1328125,32.42756710698209L97.453125,34.449434888859614L99.7734375,36.51494972407819L102.09374999999999,38.62207853545747L104.4140625,40.7687149817745L106.73437500000001,42.95275272180639L109.0546875,45.172030466298274L111.375,47.424368609984725L113.6953125,49.707532599568374L116.015625,52.01928788175187L118.3359375,54.35732663919531L120.65625,56.719368528574726L122.9765625,59.10305994252366L125.296875,61.50606558968625L127.6171875,63.92600438868007L129.9375,66.36048610011738L132.2578125,68.80712048461041L134.578125,71.26348067075016L136.8984375,73.72714894513291L139.21875,76.19568927834433L141.5390625,78.6666656409701L143.85937500000003,81.13764200359584L146.1796875,83.60619149481258L148.5,86.06985061119002L150.8203125,88.52621079732975L153.140625,90.97284518182279L155.4609375,93.40732689326009L157.78125,95.82726569225393L160.1015625,98.23027133941652L162.421875,100.61396275336543L164.7421875,102.97600464274487L167.0625,105.31405255819362L169.38281249999997,107.62579868237178L171.703125,109.90897182996075L174.0234375,112.16130081564188L176.34375,114.38058771813908L178.66406250000003,116.56462545817098L180.984375,118.71126190448803L183.3046875,120.81837239985667L185.625,122.8838918140779L187.9453125,124.90577333296339L190.265625,126.88202051135401L192.5859375,128.8106872731199L194.90625,130.68986875315508L197.2265625,132.5177058763802L199.546875,134.2923990947505L201.8671875,136.01219922925037L204.18749999999997,137.67540289089084L206.5078125,139.28037537572285L208.828125,140.82552776982388L211.1484375,142.30933526530862L213.46875000000003,143.73033716032901L215.7890625,145.0871322800716L218.109375,146.37837439775467L220.4296875,147.60279055063924L222.75,148.75918104002875L225.0703125,149.84639653625587L227.390625,150.86336555269858L229.7109375,151.80908528777462L232.03125,152.68262162494162L234.3515625,153.48311371169984L236.671875,154.20976938058934L238.99218749999997,154.86187430719536L241.3125,155.43878743114573L243.6328125,155.93993179810545L245.953125,156.36481745479009L248.27343750000003,156.71302313295504L250.59375,156.98420998640358L252.9140625,157.17810327497622" style="fill: none;" fill="none"></path></g></g></g></g></g><g><g opacity="0.404617"><span fill="rgb(0, 0, 0)" stroke="none" stroke-width="1px">Alt + Scroll to Zoom</span></g></g></g><g transform="translate(51, 177)" clip-path="url(#clip_1)"><clipPath id="clip_1"><rect width="278" height="23"></rect></clipPath><g><g><line x1="0" y1="0" x2="0" y2="5" style="visibility: inherit;" fill="rgb(0, 0, 0)" stroke="rgb(204, 204, 204)" stroke-width="1px"></line><line x1="23.203125" y1="0" x2="23.203125" y2="5" style="visibility: inherit;" fill="rgb(0, 0, 0)" stroke="rgb(204, 204, 204)" stroke-width="1px"></line><line x1="46.40625" y1="0" x2="46.40625" y2="5" style="visibility: inherit;" fill="rgb(0, 0, 0)" stroke="rgb(204, 204, 204)" stroke-width="1px"></line><line x1="69.609375" y1="0" x2="69.609375" y2="5" style="visibility: inherit;" fill="rgb(0, 0, 0)" stroke="rgb(204, 204, 204)" stroke-width="1px"></line><line x1="92.8125" y1="0" x2="92.8125" y2="5" style="visibility: inherit;" fill="rgb(0, 0, 0)" stroke="rgb(204, 204, 204)" stroke-width="1px"></line><line x1="116.015625" y1="0" x2="116.015625" y2="5" style="visibility: inherit;" fill="rgb(0, 0, 0)" stroke="rgb(204, 204, 204)" stroke-width="1px"></line><line x1="139.21875" y1="0" x2="139.21875" y2="5" style="visibility: inherit;" fill="rgb(0, 0, 0)" stroke="rgb(204, 204, 204)" stroke-width="1px"></line><line x1="162.421875" y1="0" x2="162.421875" y2="5" style="visibility: inherit;" fill="rgb(0, 0, 0)" stroke="rgb(204, 204, 204)" stroke-width="1px"></line><line x1="185.625" y1="0" x2="185.625" y2="5" style="visibility: inherit;" fill="rgb(0, 0, 0)" stroke="rgb(204, 204, 204)" stroke-width="1px"></line><line x1="208.828125" y1="0" x2="208.828125" y2="5" style="visibility: inherit;" fill="rgb(0, 0, 0)" stroke="rgb(204, 204, 204)" stroke-width="1px"></line><line x1="232.03125" y1="0" x2="232.03125" y2="5" style="visibility: inherit;" fill="rgb(0, 0, 0)" stroke="rgb(204, 204, 204)" stroke-width="1px"></line><line x1="255.234375" y1="0" x2="255.234375" y2="5" style="visibility: inherit;" fill="rgb(0, 0, 0)" stroke="rgb(204, 204, 204)" stroke-width="1px"></line><line x1="278.4375" y1="0" x2="278.4375" y2="5" style="visibility: inherit;" fill="rgb(0, 0, 0)" stroke="rgb(204, 204, 204)" stroke-width="1px"></line></g><g transform="translate(0, 8)"><text x="0" y="0" dx="0em" dy="0.95em" style="text-anchor: middle; visibility: hidden; font-family: Roboto, sans-serif; font-size: 12px; font-weight: 200;" fill="rgb(255, 255, 255)" stroke="none" stroke-width="1px">-10</text><text x="23.203125" y="0" dx="0em" dy="0.95em" style="text-anchor: middle; visibility: inherit; font-family: Roboto, sans-serif; font-size: 12px; font-weight: 200;" fill="rgb(255, 255, 255)" stroke="none" stroke-width="1px">0</text><text x="46.40625" y="0" dx="0em" dy="0.95em" style="text-anchor: middle; visibility: inherit; font-family: Roboto, sans-serif; font-size: 12px; font-weight: 200;" fill="rgb(255, 255, 255)" stroke="none" stroke-width="1px">10</text><text x="69.609375" y="0" dx="0em" dy="0.95em" style="text-anchor: middle; visibility: inherit; font-family: Roboto, sans-serif; font-size: 12px; font-weight: 200;" fill="rgb(255, 255, 255)" stroke="none" stroke-width="1px">20</text><text x="92.8125" y="0" dx="0em" dy="0.95em" style="text-anchor: middle; visibility: inherit; font-family: Roboto, sans-serif; font-size: 12px; font-weight: 200;" fill="rgb(255, 255, 255)" stroke="none" stroke-width="1px">30</text><text x="116.015625" y="0" dx="0em" dy="0.95em" style="text-anchor: middle; visibility: inherit; font-family: Roboto, sans-serif; font-size: 12px; font-weight: 200;" fill="rgb(255, 255, 255)" stroke="none" stroke-width="1px">40</text><text x="139.21875" y="0" dx="0em" dy="0.95em" style="text-anchor: middle; visibility: inherit; font-family: Roboto, sans-serif; font-size: 12px; font-weight: 200;" fill="rgb(255, 255, 255)" stroke="none" stroke-width="1px">50</text><text x="162.421875" y="0" dx="0em" dy="0.95em" style="text-anchor: middle; visibility: inherit; font-family: Roboto, sans-serif; font-size: 12px; font-weight: 200;" fill="rgb(255, 255, 255)" stroke="none" stroke-width="1px">60</text><text x="185.625" y="0" dx="0em" dy="0.95em" style="text-anchor: middle; visibility: inherit; font-family: Roboto, sans-serif; font-size: 12px; font-weight: 200;" fill="rgb(255, 255, 255)" stroke="none" stroke-width="1px">70</text><text x="208.828125" y="0" dx="0em" dy="0.95em" style="text-anchor: middle; visibility: inherit; font-family: Roboto, sans-serif; font-size: 12px; font-weight: 200;" fill="rgb(255, 255, 255)" stroke="none" stroke-width="1px">80</text><text x="232.03125" y="0" dx="0em" dy="0.95em" style="text-anchor: middle; visibility: inherit; font-family: Roboto, sans-serif; font-size: 12px; font-weight: 200;" fill="rgb(255, 255, 255)" stroke="none" stroke-width="1px">90</text><text x="255.234375" y="0" dx="0em" dy="0.95em" style="text-anchor: middle; visibility: inherit; font-family: Roboto, sans-serif; font-size: 12px; font-weight: 200;" fill="rgb(255, 255, 255)" stroke="none" stroke-width="1px">100</text><text x="278.4375" y="0" dx="0em" dy="0.95em" style="text-anchor: middle; visibility: hidden; font-family: Roboto, sans-serif; font-size: 12px; font-weight: 200;" fill="rgb(255, 255, 255)" stroke="none" stroke-width="1px">110</text></g><line x1="0" y1="0" x2="278.4375" y2="0" fill="rgb(0, 0, 0)" stroke="rgb(204, 204, 204)" stroke-width="1px"></line></g></g></g></g></svg>